<svg version="1.1" xmlns="http://www.w3.org/2000/svg" viewBox="-116.24954476377403 -62.64349514426784 238.51051891758482 158.24188203024997" fill="none" stroke="black" stroke-width="0.6%" vector-effect="non-scaling-stroke">
    <path d="M -115.24954 29.38223 L -115.24954 19.92437 L -53.4766 45.46563 L 5.5027 30.41816 L -26.34286 17.25098" />
    <path d="M -53.4766 54.92349 L -53.4766 45.46563" />
    <path d="M -115.24954 29.38223 L -53.4766 54.92349 L 5.5027 39.87602 L 5.5027 30.41816" />
    <path d="M -85.3122 12.28642 L -115.24954 19.92437" />
    <path d="M -44.20544 34.83997 L -81.26921 19.51522" />
    <path d="M -44.20544 34.83997 L -36.34154 32.83364 A 50 29.21199 75.68738 0 0 -67.23404 -61.10824" />
    <path d="M -44.20544 34.83997 A 50 29.21199 75.68738 0 0 -75.09795 -59.10191 L -67.23404 -61.10824" />
    <path d="M -75.09795 -59.10191 A 50 29.21199 75.68738 0 0 -81.26921 19.51522" />
    <path d="M 40.3745 33.5079 A 50 16.23955 360 0 1 121.26097 46.27852 L 121.26097 55.73638" />
    <path d="M 121.26097 46.27852 A 50 16.23955 360 0 1 21.26097 46.27852 L 21.26097 54.49484" />
    <path d="M 21.26097 46.27852 A 50 16.23955 360 0 1 40.3745 33.5079" />
    <path d="M 58.98612 71.47896 A 50 16.23955 180 0 0 121.26097 55.73638" />
    <path d="M -61.76612 69.05713 L -61.76612 59.59927 L 0.00682 85.14053 L 58.98612 70.09306 L -2.78682 44.5518 L -61.76612 59.59927" />
    <path d="M 0.00682 94.59839 L 0.00682 85.14053" />
    <path d="M -61.76612 69.05713 L 0.00682 94.59839 L 58.98612 79.55092 L 58.98612 70.09306" />
    <path d="M 9.27798 74.51487 L -27.78579 59.19012 L -19.92188 57.18379" />
    <path d="M 9.27798 74.51487 L 17.14188 72.50854 L -19.92188 57.18379" />
    <path d="M -14.11521 64.84249 A 50 29.21199 255.68738 0 1 -19.92188 57.18379" />
</svg>