<svg version="1.1" xmlns="http://www.w3.org/2000/svg" viewBox="-71.00697501864747 -81.63628511598418 195.63493266440523 178.80362545008796" fill="none" stroke="black" stroke-width="0.6%" vector-effect="non-scaling-stroke">
    <path d="M 25.96625 20.50531 A 55 33.23585 73.6529 0 0 -13.84531 -79.81368" />
    <path d="M -30.34232 2.66498 A 55 33.23585 253.6529 0 1 -21.49087 -77.57114 A 55 33.23585 253.6529 0 1 18.32069 22.74785 L 25.96625 20.50531" />
    <path d="M -59.26397 5.5732 L 5.19176 32.17362 L 62.53346 15.35455 L 35.04058 4.00844" />
    <path d="M -32.8462 -2.17547 L -59.26397 5.5732" />
    <path d="M 18.32069 22.74785 L -30.34232 2.66498" />
    <path d="M -59.26397 14.94845 L -59.26397 5.5732" />
    <path d="M 5.19176 41.54886 L 5.19176 32.17362" />
    <path d="M -59.26397 14.94845 L 5.19176 41.54886 L 15.98989 38.38163" />
    <path d="M 62.53346 24.72979 L 62.53346 15.35455" />
    <path d="M 61.81352 24.94096 L 62.53346 24.72979" />
    <path d="M 26.57738 56.26309 A 55 19.13559 360 0 1 13.62796 43.92911 L 13.62796 53.30435 A 55 19.13559 180 0 0 13.69537 54.25146" />
    <path d="M 13.62796 43.92911 A 55 19.13559 360 0 1 123.62796 43.92911 L 123.62796 53.30435" />
    <path d="M 123.62796 43.92911 A 55 19.13559 360 0 1 26.57738 56.26309" />
    <path d="M 51.79046 71.52119 A 55 19.13559 180 0 0 123.62796 53.30435" />
    <path d="M 51.79046 79.34827 L 51.79046 69.97303 L -12.66527 43.37262 L -70.00697 60.19168 L -5.55125 86.7921 L 51.79046 69.97303" />
    <path d="M -5.55125 96.16734 L -5.55125 86.7921" />
    <path d="M -5.55125 96.16734 L 51.79046 79.34827" />
    <path d="M -70.00697 69.56693 L -70.00697 60.19168" />
    <path d="M -70.00697 69.56693 L -5.55125 96.16734" />
    <path d="M -25.7942 52.79838 L 22.86881 72.88125 L 15.22324 75.12379" />
    <path d="M -25.7942 52.79838 L -33.43976 55.04092 L 15.22324 75.12379" />
    <path d="M -25.7942 52.79838 A 55 33.23585 73.6529 0 0 -21.13226 60.12014" />
    <path d="M -21.49087 -77.57114 L -13.84531 -79.81368" />
</svg>