<svg version="1.1" xmlns="http://www.w3.org/2000/svg" viewBox="-143.75070348452093 -56.009814604978914 344.623654450663 165.99497586664648" fill="none" stroke="black" stroke-width="0.6%" vector-effect="non-scaling-stroke">
    <path d="M -32.68893 -42.77683 L -129.03435 -55.00981 L -133.85987 -52.99129 L -133.85987 48.65098" />
    <path d="M -32.68893 60.68777 L -32.68893 -42.77683 L -37.51445 -40.75831 L -133.85987 -52.99129" />
    <path d="M -142.7507 62.10086 L -142.7507 52.37004 L -55.16396 63.49093 L -41.89378 57.93999" />
    <path d="M -129.48053 46.8191 L -142.7507 52.37004" />
    <path d="M -37.51445 62.79238 L -37.51445 -40.75831" />
    <path d="M -41.89378 64.99166 L -41.89378 57.93999" />
    <path d="M -129.48053 46.8191 L -41.89378 57.93999" />
    <path d="M -18.97257 54.70548 L -18.97257 48.352 L -32.68893 46.61043" />
    <path d="M -32.68893 54.08958 L -18.97257 48.352" />
    <path d="M -55.16396 69.79507 L -55.16396 63.49093" />
    <path d="M -142.7507 62.10086 L -61.44831 72.42383" />
    <path d="M 50.44683 27.30183 L 50.44683 25.61785 L 146.79225 37.85083 L 199.87295 15.64706 L 103.52753 3.41408 L 50.44683 25.61785" />
    <path d="M 146.79225 47.58164 L 146.79225 37.85083" />
    <path d="M 134.94525 46.07743 L 146.79225 47.58164 L 199.87295 25.37787 L 199.87295 15.64706" />
    <path d="M 11.16712 43.88518 L 11.16712 42.04864 L 98.75386 53.16953 L 112.02404 47.61858" />
    <path d="M 98.75386 62.90034 L 98.75386 53.16953" />
    <path d="M 73.31168 59.66995 L 98.75386 62.90034 L 134.94525 47.76141 L 134.94525 38.03059 L 47.3585 26.9097 L 29.26281 34.47917 L 116.84956 45.60006 L 134.94525 38.03059" />
    <path d="M 24.43729 36.49769 L 11.16712 42.04864" />
    <path d="M 29.26281 34.47917 L 29.26281 37.11039" />
    <path d="M 116.84956 53.38471 L 116.84956 45.60006" />
    <path d="M 112.02404 55.40324 L 116.84956 53.38471" />
    <path d="M 112.02404 55.40324 L 112.02404 47.61858" />
    <path d="M 24.43729 36.49769 L 112.02404 47.61858" />
    <path d="M 112.02404 52.77202 L 116.84956 53.38471" />
    <path d="M -96.34542 96.75218 L -96.34542 87.02136 L 0 99.25434 L 53.0807 77.05057 L -43.26472 64.81759 L -96.34542 87.02136" />
    <path d="M 0 108.98516 L 0 99.25434" />
    <path d="M -96.34542 96.75218 L 0 108.98516 L 53.0807 86.78139 L 53.0807 77.05057" />
    <path d="M 26.59245 73.68736 L 26.59245 71.82917 L 73.31168 51.45291 L 48.9974 48.49201" />
    <path d="M 73.31168 61.18373 L 73.31168 51.45291" />
    <path d="M 40.573 75.46247 L 73.31168 61.18373" />
    <path d="M 2.27817 68.86827 L 26.59245 71.82917" />
    <path d="M 2.27817 68.86827 L 2.27817 70.60017" />
    <path d="M -6.56339 67.79158 L -6.56339 69.47756" />
    <path d="M -39.71923 63.75398 L -6.56339 67.79158 L 40.15584 47.41532 L 7 43.37773 L -39.71923 63.75398 Z" />
    <path d="M -39.71923 65.26776 L -39.71923 63.75398" />
    <path d="M 40.15584 52.34819 L 40.15584 47.41532" />
    <path d="M 2.27817 68.86827 L 48.9974 48.49201" />
</svg>