<svg version="1.1" xmlns="http://www.w3.org/2000/svg" viewBox="-66.43494459949392 -76.05888360469768 182.9310796524456 171.3012267290859" fill="none" stroke="black" stroke-width="0.6%" vector-effect="non-scaling-stroke">
    <path d="M -56.71442 16.41217 L -56.71442 6.98793 L 8.72052 32.27667 L 65.43494 15.8645 L 34.44138 3.88638" />
    <path d="M 8.72052 41.7009 L 8.72052 32.27667" />
    <path d="M -56.71442 16.41217 L 8.72052 41.7009 L 17.35377 39.20259" />
    <path d="M -27.29994 -1.52411 L -56.71442 6.98793" />
    <path d="M 65.43494 25.28874 L 65.43494 15.8645" />
    <path d="M 59.04969 27.13652 L 65.43494 25.28874" />
    <path d="M 16.42882 21.20113 L -22.83215 6.02788" />
    <path d="M 16.42882 21.20113 L 23.99074 19.01284 A 50 30.83371 73.86048 0 0 -9.53861 -74.3001" />
    <path d="M 16.42882 21.20113 A 50 30.83371 73.86048 0 0 -17.10053 -72.11181 L -9.53861 -74.3001" />
    <path d="M -17.10053 -72.11181 A 50 30.83371 73.86048 0 0 -22.83215 6.02788" />
    <path d="M 32.77866 31.07369 A 50 16.7211 360 0 1 115.49613 43.71806 L 115.49613 53.1423" />
    <path d="M 115.49613 43.71806 A 50 16.7211 360 1 1 15.49613 43.71806 L 15.49613 52.47625" />
    <path d="M 15.49613 43.71806 A 50 16.7211 360 0 1 32.77866 31.07369" />
    <path d="M 56.71442 69.60348 A 50 16.7211 180 0 0 115.49613 53.1423" />
    <path d="M -65.43494 68.95361 L -65.43494 59.52937 L 0 84.81811 L 56.71442 68.40594 L -8.72052 43.11721 L -65.43494 59.52937" />
    <path d="M 0 94.24234 L 0 84.81811" />
    <path d="M -65.43494 68.95361 L 0 94.24234 L 56.71442 77.83018 L 56.71442 68.40594" />
    <path d="M 7.7083 73.74257 L -31.55267 58.56932 L -23.99074 56.38104" />
    <path d="M 7.7083 73.74257 L 15.27022 71.55428 L -23.99074 56.38104" />
    <path d="M -18.03525 63.79342 A 50 30.83371 253.86048 0 1 -23.99074 56.38104" />
</svg>