<svg version="1.1" xmlns="http://www.w3.org/2000/svg" viewBox="-186.76917855402655 -29.93750584405316 382.83868956911545 129.60809399841727" fill="none" stroke="black" stroke-width="0.6%" vector-effect="non-scaling-stroke">
    <path d="M -90.50971 67.72926 A 55 48.09248 67.00238 0 0 -145.77275 -25.56336" />
    <path d="M -162.52586 62.48084 A 55 48.09248 247.00238 0 1 -150.23903 -23.66776 A 55 48.09248 247.00238 0 1 -94.97598 69.62486 L -90.50971 67.72926" />
    <path d="M -185.76918 66.53451 L -96.29718 75.99701 L -62.80011 61.77999 L -83.58393 59.58191" />
    <path d="M -166.00154 58.14462 L -185.76918 66.53451" />
    <path d="M -94.97598 69.62486 L -162.52586 62.48084" />
    <path d="M -185.76918 76.3075 L -185.76918 66.53451" />
    <path d="M -96.29718 85.76999 L -96.29718 75.99701" />
    <path d="M -185.76918 76.3075 L -96.29718 85.76999 L -79.66564 78.71114" />
    <path d="M -62.80011 68.84817 L -62.80011 61.77999" />
    <path d="M -49.23015 87.67081 A 55 11.6526 0 0 1 -79.66564 77.245 L -79.66564 87.01799 A 55 11.6526 180 0 0 -49.23015 97.4438 A 55 11.6526 180 0 0 30.33436 87.01799" />
    <path d="M -79.66564 77.245 A 55 11.6526 0 1 1 30.33436 77.245 L 30.33436 87.01799" />
    <path d="M 30.33436 77.245 A 55 11.6526 0 0 1 -49.23015 87.67081" />
    <path d="M 195.06951 15.70995 L 195.06951 5.93696 L 105.59751 -3.52553 L 72.10045 10.69148 L 161.57244 20.15398 L 195.06951 5.93696" />
    <path d="M 161.57244 29.92697 L 161.57244 20.15398" />
    <path d="M 161.57244 29.92697 L 195.06951 15.70995" />
    <path d="M 72.10045 20.46447 L 72.10045 10.69148" />
    <path d="M 72.10045 20.46447 L 161.57244 29.92697" />
    <path d="M 104.27632 2.84661 L 171.82619 9.99063 L 167.35992 11.88624" />
    <path d="M 104.27632 2.84661 L 99.81004 4.74221 L 167.35992 11.88624" />
    <path d="M 104.27632 2.84661 A 55 48.09248 67.00238 0 0 106.73231 5.4743" />
    <path d="M -150.23903 -23.66776 L -145.77275 -25.56336" />
</svg>