<svg version="1.1" xmlns="http://www.w3.org/2000/svg" viewBox="-188.66946406984198 -28.661347660122527 376.6272397658861 128.64709187043485" fill="none" stroke="black" stroke-width="0.6%" vector-effect="non-scaling-stroke">
    <path d="M -92.33348 68.88859 A 55 48.53023 66.82398 0 0 -148.01349 -24.17423" />
    <path d="M -164.72808 64.03204 A 55 48.53023 246.82398 0 1 -152.33936 -22.32231 A 55 48.53023 246.82398 0 1 -96.65934 70.74051 L -92.33348 68.88859" />
    <path d="M -187.66946 68.03628 L -97.51021 76.92186 L -65.06624 63.03243 L -85.57477 61.01122" />
    <path d="M -168.2295 59.71393 L -187.66946 68.03628" />
    <path d="M -96.65934 70.74051 L -164.72808 64.03204" />
    <path d="M -187.66946 77.82305 L -187.66946 68.03628" />
    <path d="M -97.51021 86.70863 L -97.51021 76.92186" />
    <path d="M -187.66946 77.82305 L -97.51021 86.70863 L -80.79534 79.55291" />
    <path d="M -65.06624 69.99206 L -65.06624 63.03243" />
    <path d="M -49.58759 88.08723 A 55 11.29733 360 0 1 -80.79534 77.90165 L -80.79534 87.68842 A 55 11.29733 180 0 0 -49.58759 97.874 A 55 11.29733 180 0 0 29.20466 87.68842" />
    <path d="M -80.79534 77.90165 A 55 11.29733 360 0 1 29.20466 77.90165 L 29.20466 87.68842" />
    <path d="M 29.20466 77.90165 A 55 11.29733 360 0 1 -49.58759 88.08723" />
    <path d="M 128.70035 33.19415 L 128.70035 23.40738 L 186.95777 6.71245 L 125.99946 -2.26237 L 67.74204 14.43256 L 128.70035 23.40738" />
    <path d="M 186.95777 16.49922 L 186.95777 6.71245" />
    <path d="M 128.70035 33.19415 L 186.95777 16.49922" />
    <path d="M 67.74204 24.21933 L 67.74204 14.43256" />
    <path d="M 67.74204 24.21933 L 128.70035 33.19415" />
    <path d="M 157.46938 5.46695 L 113.48598 18.07135 L 105.35821 16.87471" />
    <path d="M 157.46938 5.46695 L 149.3416 4.27031 A 55 31.35836 98.37542 0 1 146.87969 8.50165" />
    <path d="M 149.3416 4.27031 L 105.35821 16.87471" />
    <path d="M -152.33936 -22.32231 L -148.01349 -24.17423" />
</svg>