<svg version="1.1" xmlns="http://www.w3.org/2000/svg" viewBox="-66.43303744045477 -76.06738292443154 182.92969842950896 171.32449380252905" fill="none" stroke="black" stroke-width="0.6%" vector-effect="non-scaling-stroke">
    <path d="M -56.71711 16.39958 L -56.71711 6.97577 L 8.72005 32.27294 L 65.43304 15.85433 L 34.44221 3.87367" />
    <path d="M 8.72005 41.69675 L 8.72005 32.27294" />
    <path d="M -56.71711 16.39958 L 8.72005 41.69675 L 17.35838 39.19592" />
    <path d="M -27.30397 -1.53943 L -56.71711 6.97577" />
    <path d="M 65.43304 25.27814 L 65.43304 15.85433" />
    <path d="M 59.03233 27.13117 L 65.43304 25.27814" />
    <path d="M 16.42738 21.19335 L -22.83491 6.01505" />
    <path d="M 16.42738 21.19335 L 23.98911 19.0042 A 50 30.83336 73.85409 0 0 -9.54626 -74.30801" />
    <path d="M 16.42738 21.19335 A 50 30.83336 73.85409 0 0 -17.10799 -72.11887 L -9.54626 -74.30801" />
    <path d="M -17.10799 -72.11887 A 50 30.83336 73.85409 0 0 -22.83491 6.01505" />
    <path d="M 32.77808 31.0693 A 50 16.7271 360 0 1 115.49666 43.71788 L 115.49666 53.14169" />
    <path d="M 115.49666 43.71788 A 50 16.7271 360 0 1 15.49666 43.71788 L 15.49666 52.4794" />
    <path d="M 15.49666 43.71788 A 50 16.7271 360 0 1 32.77808 31.0693" />
    <path d="M 56.71711 69.6089 A 50 16.7271 180 0 0 115.49666 53.14169" />
    <path d="M -65.43304 68.95994 L -65.43304 59.53614 L 0.00412 84.8333 L 56.71711 68.4147 L -8.72005 43.11753 L -65.43304 59.53614" />
    <path d="M 0.00412 94.25711 L 0.00412 84.8333" />
    <path d="M -65.43304 68.95994 L 0.00412 94.25711 L 56.71711 77.83851 L 56.71711 68.4147" />
    <path d="M 7.71145 73.75371 L -31.55084 58.57541 L -23.98911 56.38627" />
    <path d="M 7.71145 73.75371 L 15.27318 71.56457 L -23.98911 56.38627" />
    <path d="M -18.03056 63.80218 A 50 30.83336 253.85409 0 1 -23.98911 56.38627" />
</svg>