<svg version="1.1" xmlns="http://www.w3.org/2000/svg" viewBox="-60.20455422051997 -81.6537130732299 201.7769940387043 173.28566136270672" fill="none" stroke="black" stroke-width="0.6%" vector-effect="non-scaling-stroke">
    <path d="M 26.02567 20.48788 A 55 33.23585 73.6529 0 0 -13.7859 -79.83111" />
    <path d="M -30.2829 2.64755 A 55 33.23585 253.6529 0 1 -21.43146 -77.58857 A 55 33.23585 253.6529 0 1 18.38011 22.73043 L 26.02567 20.48788" />
    <path d="M -59.20455 5.55577 L 5.25118 32.15619 L 62.59288 15.33712 L 35.1 3.99101" />
    <path d="M -32.78679 -2.1929 L -59.20455 5.55577" />
    <path d="M 18.38011 22.73043 L -30.2829 2.64755" />
    <path d="M -59.20455 14.93102 L -59.20455 5.55577" />
    <path d="M 5.25118 41.53143 L 5.25118 32.15619" />
    <path d="M -59.20455 14.93102 L 5.25118 41.53143 L 18.77501 37.56472" />
    <path d="M 62.59288 21.29842 L 62.59288 15.33712" />
    <path d="M 48.65602 49.78714 A 55 19.13559 360 0 1 61.60543 62.12112 L 61.60543 71.49636" />
    <path d="M 61.60543 62.12112 A 55 19.13559 360 0 1 -48.39457 62.12112 L -48.39457 71.49636 A 55 19.13559 180 0 0 61.60543 71.49636" />
    <path d="M -48.39457 62.12112 A 55 19.13559 360 0 1 48.65602 49.78714" />
    <path d="M 18.77501 43.45983 L 18.77501 34.15077 L 83.23074 60.75119 L 140.57244 43.93212 L 76.11671 17.33171 L 18.77501 34.15077" />
    <path d="M 83.23074 70.12643 L 83.23074 60.75119" />
    <path d="M 61.53803 61.174 L 83.23074 70.12643 L 140.57244 53.30736 L 140.57244 43.93212" />
    <path d="M 96.35967 51.32542 L 47.69666 31.24255 L 55.34222 29.00001" />
    <path d="M 96.35967 51.32542 L 104.00523 49.08288 L 55.34222 29.00001" />
    <path d="M 60.00416 36.32177 A 55 33.23585 253.6529 0 1 55.34222 29.00001" />
    <path d="M -21.43146 -77.58857 L -13.7859 -79.83111" />
</svg>