<svg version="1.1" xmlns="http://www.w3.org/2000/svg" viewBox="-60.373008640398716 -81.76957687263882 207.86952106716512 173.10860460936323" fill="none" stroke="black" stroke-width="0.6%" vector-effect="non-scaling-stroke">
    <path d="M 25.7287 20.40075 A 55 33.1322 73.79448 0 0 -13.86613 -79.96625" />
    <path d="M -30.42653 2.55783 A 55 33.1322 253.79448 0 1 -21.5309 -77.73862 A 55 33.1322 253.79448 0 1 18.06393 22.62837 L 25.7287 20.40075" />
    <path d="M -59.37301 5.42702 L 4.85418 32.0111 L 62.33995 15.30394 L 34.77086 3.8929" />
    <path d="M -32.91193 -2.2634 L -59.37301 5.42702" />
    <path d="M 18.06393 22.62837 L -30.42653 2.55783" />
    <path d="M -59.37301 14.80628 L -59.37301 5.42702" />
    <path d="M 4.85418 41.39037 L 4.85418 32.0111" />
    <path d="M -59.37301 14.80628 L 4.85418 41.39037 L 62.33995 24.6832 L 62.33995 15.30394" />
    <path d="M -36.20493 74.13577 A 55 19.07591 360 0 1 -49.0487 61.88385 L -49.0487 71.26312 A 55 19.07591 180 0 0 -36.20493 83.51504 A 55 19.07591 180 0 0 60.9513 71.26312" />
    <path d="M -49.0487 61.88385 A 55 19.07591 360 0 1 60.9513 61.88385 L 60.9513 71.26312" />
    <path d="M 60.9513 61.88385 A 55 19.07591 360 0 1 -36.20493 74.13577" />
    <path d="M 24.78356 43.96103 L 24.78356 36.67187 L 89.01074 63.25595 L 146.49651 46.54879 L 82.26933 19.96471 L 24.78356 36.67187" />
    <path d="M 89.01074 72.63521 L 89.01074 63.25595" />
    <path d="M 60.89178 60.99658 L 89.01074 72.63521 L 146.49651 55.92805 L 146.49651 46.54879" />
    <path d="M 102.2205 53.87322 L 53.73003 33.80268 L 61.3948 31.57506" />
    <path d="M 102.2205 53.87322 L 109.88527 51.6456 L 61.3948 31.57506" />
    <path d="M 66.04022 38.89795 A 55 33.1322 253.79448 0 1 61.3948 31.57506" />
    <path d="M -21.5309 -77.73862 L -13.86613 -79.96625" />
</svg>