<svg version="1.1" xmlns="http://www.w3.org/2000/svg" viewBox="-89.50802091360589 -112.65582297263768 228.09581028275974 213.2842001517156" fill="none" stroke="black" stroke-width="0.6%" vector-effect="non-scaling-stroke">
    <path d="M -18.27745 45.0035 A 80 32.23049 360 0 1 24.39226 25.90636" />
    <path d="M -18.27745 45.0035 L -26.3811 40.17585 L -49.16097 46.38241 L -49.16097 53.57418" />
    <path d="M -1.42478 86.14493 A 80 32.23049 180 0 0 137.58779 64.38369" />
    <path d="M -13.04063 40.09428 A 80 41.01779 254.75924 0 1 -30.43528 22.17348" />
    <path d="M -46.47442 -9.35694 A 80 41.01779 254.75924 0 1 -55.26999 -58.16143 A 80 41.01779 254.75924 0 1 -31.48422 -108.64939 A 80 41.01779 254.75924 0 1 28.35747 28.26858 L 36.64106 26.01165 A 80 41.01779 74.75924 0 0 -23.20063 -110.90632" />
    <path d="M 28.35747 28.26858 L 24.39226 25.90636" />
    <path d="M 17.55572 21.83359 L -38.46406 -11.53943 L -61.24393 -5.33287 L -5.22415 28.04015 L 17.55572 21.83359 L 17.55572 27.32621" />
    <path d="M -49.16097 46.38241 L -19.25236 64.20006 L -19.25236 71.39183" />
    <path d="M 37.4767 24.03572 A 80 32.23049 360 0 1 137.58779 55.23117 A 80 32.23049 360 0 1 -19.25236 64.20006" />
    <path d="M -61.24393 3.81965 L -61.24393 -5.33287" />
    <path d="M -5.22415 35.27061 L -5.22415 28.04015" />
    <path d="M -61.24393 3.81965 L -6.93196 36.17526" />
    <path d="M 56.90277 11.11316 L 42.25505 2.38699" />
    <path d="M 40.12517 15.68436 L 56.90277 11.11316" />
    <path d="M 45.50826 23.37021 L 56.90277 20.26569 L 56.90277 11.11316" />
    <path d="M -32.48824 99.62838 L -1.42478 91.16488 L -1.42478 82.01236" />
    <path d="M -32.48824 90.47585 L -1.42478 82.01236" />
    <path d="M -32.48824 99.62838 L -32.48824 90.47585" />
    <path d="M -88.50802 66.25536 L -32.48824 99.62838" />
    <path d="M -57.44456 48.63935 L -1.42478 82.01236" />
    <path d="M -88.50802 57.10284 L -32.48824 90.47585" />
    <path d="M -57.44456 48.63935 L -88.50802 57.10284" />
    <path d="M -88.50802 66.25536 L -88.50802 57.10284" />
    <path d="M 137.58779 55.23117 L 137.58779 64.38369" />
    <path d="M -31.48422 -108.64939 L -23.20063 -110.90632" />
</svg>