<svg version="1.1" xmlns="http://www.w3.org/2000/svg" viewBox="-60.04861393897003 -100.02101834327478 140.82516715600067 191.91437072824573" fill="none" stroke="black" stroke-width="0.6%" vector-effect="non-scaling-stroke">
    <path d="M 31.22884 -69.51049 L -30.93717 -99.02102 L -39.18708 -97.18323 L -39.18708 -15.76924" />
    <path d="M 31.22884 34.51093 L 31.22884 -69.51049 L 22.97893 -67.67271 L -39.18708 -97.18323" />
    <path d="M -59.04861 15.12479 L -59.04861 5.6683 L -53.98318 8.07289" />
    <path d="M -36.36135 0.61438 L -38.24271 1.03348" />
    <path d="M -53.98318 4.5399 L -59.04861 5.6683" />
    <path d="M 22.97893 36.34872 L 22.97893 -67.67271" />
    <path d="M 20.1532 35.00733 L 22.97893 36.34872" />
    <path d="M 20.1532 35.00733 L 20.1532 27.44213" />
    <path d="M -36.36135 0.61438 L 20.1532 27.44213" />
    <path d="M 31.22884 34.51093 L 22.97893 36.34872" />
    <path d="M -2.53406 41.95254 L 22.86486 36.29457" />
    <path d="M 31.22884 34.43137 L 59.34028 28.16914 L 59.34028 18.71264 L 31.22884 5.368" />
    <path d="M 31.22884 24.97487 L 59.34028 18.71264" />
    <path d="M -2.53406 32.49605 L 20.1532 27.44213" />
    <path d="M -2.53406 41.95254 L -2.53406 32.49605" />
    <path d="M -59.04861 15.12479 L -53.98318 17.52938" />
    <path d="M -38.24271 25.00146 L -2.53406 41.95254" />
    <path d="M -38.24271 15.54497 L -2.53406 32.49605" />
    <path d="M -29.89742 90.89335 L -29.89742 81.43686 L 79.77655 78.68485 L 71.31372 43.02015 L -38.24271 45.76922" />
    <path d="M 79.77655 88.14134 L 79.77655 78.68485" />
    <path d="M -29.89742 90.89335 L 79.77655 88.14134" />
    <path d="M -38.24271 55.72401 L -29.89742 90.89335" />
    <path d="M -38.24271 46.26752 L -29.89742 81.43686" />
    <path d="M -38.24271 82.77555 L -48.21307 83.02573 L -48.21307 -11.5392 L -50.32878 -20.45537" />
    <path d="M -38.24271 -11.78938 L -48.21307 -11.5392" />
    <path d="M -38.24271 82.77555 L -38.24271 -11.78938 L -44.01282 -36.10622 L -53.98318 -35.85604 L -53.98318 58.70889 L -51.09812 70.86731 L -51.09812 -23.69762 L -53.98318 -35.85604" />
    <path d="M -50.32878 74.10955 L -48.21307 83.02573" />
    <path d="M -51.09812 70.86731 L -50.32878 70.848" />
    <path d="M -43.12184 -23.89776 L -51.09812 -23.69762" />
    <path d="M -42.35249 -20.65552 L -43.12184 -23.89776" />
    <path d="M -42.35249 -20.65552 L -50.32878 -20.45537" />
    <path d="M -50.32878 74.10955 L -50.32878 -20.45537" />
    <path d="M -43.12184 -20.63621 L -43.12184 -23.89776" />
</svg>