<svg version="1.1" xmlns="http://www.w3.org/2000/svg" viewBox="-61.580822443330526 -98.92853365259639 169.55665933594284 194.19734565030006" fill="none" stroke="black" stroke-width="0.6%" vector-effect="non-scaling-stroke">
    <path d="M 41.01232 -70.01184 L -28.94039 -97.92853 L -36.65783 -95.83726 L -36.65783 2.62028" />
    <path d="M 41.01232 33.87019 L 41.01232 -70.01184 L 33.29488 -67.92057 L -36.65783 -95.83726" />
    <path d="M -54.70111 16.95346 L -54.70111 7.50964 L 8.89226 32.88845 L 30.11521 27.13746" />
    <path d="M -33.47816 1.75865 L -54.70111 7.50964" />
    <path d="M 33.29488 35.96146 L 33.29488 -67.92057" />
    <path d="M 30.11521 34.69252 L 33.29488 35.96146" />
    <path d="M 30.11521 34.69252 L 30.11521 27.13746" />
    <path d="M -33.47816 1.75865 L 30.11521 27.13746" />
    <path d="M 41.01232 33.87019 L 33.29488 35.96146" />
    <path d="M 9.54461 42.1555 L 32.93401 35.81744" />
    <path d="M 41.01232 33.62839 L 66.77304 26.64775 L 66.77304 17.20393 L 41.01232 6.92335" />
    <path d="M 41.01232 24.18456 L 66.77304 17.20393" />
    <path d="M 8.89226 42.07524 L 8.89226 32.88845" />
    <path d="M -54.70111 16.95346 L 7.9612 41.9607" />
    <path d="M -60.58082 81.59423 L -60.58082 72.15041 L 42.4459 84.82499 L 71.33106 59.43355" />
    <path d="M -22.03871 38.27005 L -60.58082 72.15041" />
    <path d="M 42.4459 94.26881 L 42.4459 84.82499" />
    <path d="M -60.58082 81.59423 L 42.4459 94.26881 L 71.33106 68.87737" />
    <path d="M 71.33106 49.75661 L -22.03871 38.27005" />
    <path d="M 97.60977 -43.68972 L 106.97584 -42.53748 L 97.34031 -34.06739" />
    <path d="M 106.97584 51.90073 L 106.97584 -42.53748" />
    <path d="M 97.34031 60.37082 L 106.97584 51.90073" />
    <path d="M 97.34031 60.37082 L 93.83648 59.93977" />
    <path d="M 80.69713 75.00097 L 93.83648 63.45085 L 93.83648 -30.98736 L 80.69713 -19.43723 L 80.69713 75.00097 Z" />
    <path d="M 71.33106 73.84874 L 80.69713 75.00097" />
    <path d="M 97.60977 -43.68972 L 71.33106 -20.58947 L 71.33106 73.84874" />
    <path d="M 71.33106 -20.58947 L 80.69713 -19.43723" />
    <path d="M 86.34363 -31.90915 L 93.83648 -30.98736" />
    <path d="M 89.84746 -34.98918 L 86.34363 -31.90915" />
    <path d="M 89.84746 -34.98918 L 97.34031 -34.06739" />
    <path d="M 97.34031 60.37082 L 97.34031 -34.06739" />
    <path d="M 89.84746 -31.4781 L 89.84746 -34.98918" />
</svg>