<svg version="1.1" xmlns="http://www.w3.org/2000/svg" viewBox="-143.75070348452095 -56.0098146049789 344.623654450663 165.99497586664646" fill="none" stroke="black" stroke-width="0.6%" vector-effect="non-scaling-stroke">
    <path d="M -32.68893 -42.77683 L -129.03435 -55.00981 L -133.85987 -52.99129 L -133.85987 48.65098" />
    <path d="M -32.68893 60.39372 L -32.68893 -42.77683 L -37.51445 -40.75831 L -133.85987 -52.99129" />
    <path d="M -142.7507 62.10086 L -142.7507 52.37004 L -55.16396 63.49093 L -41.89378 57.93999" />
    <path d="M -129.48053 46.8191 L -142.7507 52.37004" />
    <path d="M -37.51445 62.41224 L -37.51445 -40.75831" />
    <path d="M -41.89378 64.99166 L -41.89378 57.93999" />
    <path d="M -129.48053 46.8191 L -41.89378 57.93999" />
    <path d="M -18.97257 54.65613 L -18.97257 48.352 L -32.68893 46.61043" />
    <path d="M -32.68893 54.08958 L -18.97257 48.352" />
    <path d="M -55.16396 69.79507 L -55.16396 63.49093" />
    <path d="M -142.7507 62.10086 L -61.44831 72.42383" />
    <path d="M 50.44683 27.30183 L 50.44683 25.61785 L 146.79225 37.85083 L 199.87295 15.64706 L 103.52753 3.41408 L 50.44683 25.61785" />
    <path d="M 146.79225 47.58164 L 146.79225 37.85083" />
    <path d="M 134.94525 46.07743 L 146.79225 47.58164 L 199.87295 25.37787 L 199.87295 15.64706" />
    <path d="M 11.16712 43.73262 L 11.16712 42.04864 L 98.75386 53.16953 L 112.02404 47.61858" />
    <path d="M 98.75386 62.90034 L 98.75386 53.16953" />
    <path d="M 73.76885 59.728 L 98.75386 62.90034 L 134.94525 47.76141 L 134.94525 38.03059 L 47.3585 26.9097 L 29.26281 34.47917 L 116.84956 45.60006 L 134.94525 38.03059" />
    <path d="M 24.43729 36.49769 L 11.16712 42.04864" />
    <path d="M 29.26281 34.47917 L 29.26281 37.11039" />
    <path d="M 116.84956 53.38471 L 116.84956 45.60006" />
    <path d="M 112.02404 55.40324 L 116.84956 53.38471" />
    <path d="M 112.02404 55.40324 L 112.02404 47.61858" />
    <path d="M 24.43729 36.49769 L 112.02404 47.61858" />
    <path d="M 112.02404 52.77202 L 116.84956 53.38471" />
    <path d="M -96.34542 96.75218 L -96.34542 87.02136 L 0 99.25434 L 53.0807 77.05057 L -43.26472 64.81759 L -96.34542 87.02136" />
    <path d="M 0 108.98516 L 0 99.25434" />
    <path d="M -96.34542 96.75218 L 0 108.98516 L 53.0807 86.78139 L 53.0807 77.05057" />
    <path d="M 25.51367 73.55039 L 25.51367 71.8664 L 73.76885 51.68116 L 49.68249 48.62291" />
    <path d="M 73.76885 61.41198 L 73.76885 51.68116" />
    <path d="M 40.27114 75.42414 L 73.76885 61.41198" />
    <path d="M 1.42731 68.80816 L 25.51367 71.8664" />
    <path d="M 1.42731 68.80816 L 1.42731 70.49214" />
    <path d="M -7.33136 67.69607 L -7.33136 69.38005" />
    <path d="M -40.17639 63.52574 L -7.33136 67.69607 L 40.92382 47.51083 L 8.07879 43.34049 L -40.17639 63.52574 Z" />
    <path d="M -40.17639 65.20972 L -40.17639 63.52574" />
    <path d="M 40.92382 52.28669 L 40.92382 47.51083" />
    <path d="M 1.42731 68.80816 L 49.68249 48.62291" />
</svg>